<svg width="101" height="40" viewBox="0 0 101 40" fill="none" xmlns="http://www.w3.org/2000/svg">
<g clip-path="url(#clip0_418_1240)">
<path d="M19.2129 36C19.7417 35.44 20.4468 35.04 21.3281 34.88V1.2C21.3281 0.48 20.623 0 20.0061 0C19.7417 0 19.3892 0.08 19.1248 0.32L0.352531 17.28C0.0881326 17.52 0 17.84 0 18.08C0 18.4 0.176265 18.72 0.352531 18.88L19.0366 35.84C19.1248 36 19.1248 36 19.2129 36Z" fill="#00A89B"/>
<path d="M21.8569 40.0001C23.1224 40.0001 24.1483 39.0688 24.1483 37.9201C24.1483 36.7713 23.1224 35.8401 21.8569 35.8401C20.5913 35.8401 19.5654 36.7713 19.5654 37.9201C19.5654 39.0688 20.5913 40.0001 21.8569 40.0001Z" fill="#858585"/>
<path d="M39.836 18.96C39.6597 18.64 39.3072 18.24 38.6021 18.24H22.3857V34.56L39.5716 20.24C40.0123 19.84 40.0123 19.36 39.836 18.96Z" fill="#94D000"/>
<path d="M55.7878 26.3199C55.259 26.3199 54.7302 25.9999 54.3777 25.5199L50.0592 17.1199L48.2966 18.8799V25.1199C48.2966 25.7599 47.6796 26.3199 46.8864 26.3199C46.0932 26.3199 45.3882 25.7599 45.3882 25.1199V9.11992C45.3882 8.47992 46.0932 7.91992 46.8864 7.91992C47.6796 7.91992 48.2966 8.39992 48.2966 9.11992V15.3599C50.4117 13.0399 52.5269 10.6399 54.554 8.39992C54.8184 8.15992 55.259 7.99992 55.6997 7.99992C56.7573 7.99992 57.4624 9.11992 56.8454 9.91992L52.0863 15.1199L57.0217 24.6399C57.3742 25.3599 56.8454 26.3199 55.7878 26.3199Z" fill="#00A89B"/>
<path d="M60.9875 26.2399C60.1943 26.2399 59.4893 25.7599 59.4893 25.0399V9.27991C59.4893 8.63991 60.1943 8.15991 60.9875 8.15991H65.0416C68.3025 8.15991 70.9465 10.4799 70.9465 13.3599V21.0399C70.9465 23.9199 68.3025 26.2399 65.0416 26.2399H60.9875ZM62.3976 23.8399H64.9535C66.628 23.8399 67.95 22.5599 67.95 21.0399V13.3599C67.95 11.7599 66.628 10.5599 64.9535 10.5599H62.3976V23.8399Z" fill="#00A89B"/>
<path d="M86.5462 24.8798C86.7225 25.5998 86.1055 26.3998 85.1361 26.3998C84.5191 26.3998 83.9904 26.0798 83.8141 25.5998L82.6684 22.2398H77.0279C76.6753 23.4398 76.3228 24.4798 75.8821 25.5998C75.7059 26.0798 75.089 26.3998 74.472 26.3998C73.5907 26.3998 72.7975 25.6798 73.0619 24.8798L78.3499 8.87983C78.5261 8.39983 79.1431 8.07983 79.76 8.07983C80.3769 8.07983 80.9057 8.39983 81.1701 8.87983L86.5462 24.8798ZM81.787 19.7598L79.76 12.7998L77.6448 19.7598H81.787Z" fill="#00A89B"/>
<path d="M98.0916 25.68L91.6579 14L91.9223 25.2C91.9223 25.84 91.3054 26.4 90.5122 26.4C89.719 26.4 89.1021 25.84 89.1021 25.2V9.2C89.1021 8.56 89.8071 8 90.5122 8C91.041 8 91.5698 8.32 91.8342 8.64L98.2679 20.32L98.0035 9.2C98.0035 8.56 98.6204 8 99.4136 8C100.207 8 100.824 8.48 100.824 9.2V25.2C100.824 25.76 100.383 26.24 99.678 26.4H99.7661C99.5898 26.48 99.5017 26.48 99.4136 26.48C98.8848 26.32 98.356 26.08 98.0916 25.68Z" fill="#00A89B"/>
<path d="M53.761 39.36V31.04L50.7645 36.48C50.6764 36.72 50.412 36.8 50.1476 36.8C49.8832 36.8 49.7069 36.72 49.5307 36.48L46.5341 31.04V39.36C46.5341 39.68 46.2697 39.92 45.9172 39.92C45.5647 39.92 45.3003 39.68 45.3003 39.36V28.56C45.3003 28.24 45.5647 28 45.9172 28C46.1816 28 46.3579 28.16 46.5341 28.32L50.1476 34.96L53.761 28.32C53.8492 28.16 54.1136 28 54.378 28C54.7305 28 54.9949 28.32 54.9949 28.56V39.36C54.9949 39.68 54.7305 39.92 54.378 39.92C54.0254 39.92 53.761 39.68 53.761 39.36Z" fill="#858585"/>
<path d="M57.8149 36.64V31.28C57.8149 29.44 59.4013 28 61.4284 28C63.4554 28 65.0418 29.52 65.0418 31.28V36.64C65.0418 38.48 63.4554 39.92 61.4284 39.92C59.4895 39.92 57.8149 38.48 57.8149 36.64ZM59.1369 31.28V36.64C59.1369 37.76 60.1945 38.72 61.4284 38.72C62.6622 38.72 63.7198 37.76 63.7198 36.64V31.28C63.7198 30.16 62.6622 29.2 61.4284 29.2C60.1945 29.12 59.1369 30.08 59.1369 31.28Z" fill="#858585"/>
<path d="M75.2652 36.4001C75.2652 38.3201 73.5907 39.8401 71.4755 39.8401H68.5671C68.2146 39.8401 67.9502 39.6001 67.9502 39.2801V28.6401C67.9502 28.3201 68.2146 28.0801 68.5671 28.0801H71.4755C73.2382 28.0801 74.8245 29.4401 74.8245 31.1201C74.8245 32.0801 74.2957 32.9601 73.5026 33.5201C74.5601 34.0801 75.2652 35.2001 75.2652 36.4001ZM69.2722 29.2801V32.9601H71.4755C72.6212 32.9601 73.5026 32.0801 73.5026 31.1201C73.5026 30.1601 72.6212 29.2801 71.4755 29.2801H69.2722ZM73.9432 36.4001C73.9432 35.1201 72.7975 34.1601 71.4755 34.1601H69.2722V38.7201H71.4755C72.8856 38.6401 73.9432 37.6801 73.9432 36.4001Z" fill="#858585"/>
<path d="M83.1971 39.2799C83.1971 39.5999 82.9327 39.8399 82.5802 39.8399H77.9973C77.6448 39.8399 77.3804 39.5999 77.3804 39.2799C77.3804 38.9599 77.6448 38.7199 77.9973 38.7199H79.6718V29.2799H77.9973C77.6448 29.2799 77.3804 29.0399 77.3804 28.7199C77.3804 28.3999 77.6448 28.1599 77.9973 28.1599H82.5802C82.9327 28.1599 83.1971 28.3999 83.1971 28.7199C83.1971 29.0399 82.9327 29.2799 82.5802 29.2799H80.9938V38.7199H82.5802C82.9327 38.6399 83.1971 38.9599 83.1971 39.2799Z" fill="#858585"/>
<path d="M92.3631 39.2C92.3631 39.52 92.0987 39.76 91.7462 39.76H86.4582C86.1057 39.76 85.8413 39.52 85.8413 39.2V28.56C85.8413 28.24 86.1057 28 86.4582 28C86.8108 28 87.0752 28.24 87.0752 28.56V38.56H91.7462C92.0987 38.56 92.3631 38.8 92.3631 39.2Z" fill="#858585"/>
<path d="M101 39.2801C101 39.6001 100.736 39.8401 100.383 39.8401H95.0954C94.7429 39.8401 94.4785 39.6001 94.4785 39.2801V28.6401C94.4785 28.3201 94.7429 28.0801 95.0954 28.0801H100.295C100.648 28.0801 100.912 28.3201 100.912 28.6401C100.912 28.9601 100.648 29.2001 100.295 29.2001H95.7124V32.8801H99.7665C100.119 32.8801 100.383 33.1201 100.383 33.4401C100.383 33.7601 100.119 34.0001 99.7665 34.0001H95.7124V38.5601H100.295C100.736 38.6401 101 38.9601 101 39.2801Z" fill="#858585"/>
</g>
<defs>
<clipPath id="clip0_418_1240">
<rect width="101" height="40" fill="white"/>
</clipPath>
</defs>
</svg>
