<svg width="102" height="40" viewBox="0 0 102 40" fill="none" xmlns="http://www.w3.org/2000/svg">
<g clip-path="url(#clip0_418_853)">
<path d="M19.4033 36C19.9321 35.44 20.6372 35.04 21.5185 34.88V1.2C21.5185 0.48 20.8135 0 20.1965 0C19.9321 0 19.5796 0.08 19.3152 0.32L0.54296 17.28C0.278562 17.52 0.19043 17.84 0.19043 18.08C0.19043 18.4 0.366695 18.72 0.54296 18.88L19.2271 35.84C19.3152 36 19.3152 36 19.4033 36Z" fill="#00A89B"/>
<path d="M22.0473 40C23.3128 40 24.3388 39.0688 24.3388 37.92C24.3388 36.7712 23.3128 35.84 22.0473 35.84C20.7818 35.84 19.7559 36.7712 19.7559 37.92C19.7559 39.0688 20.7818 40 22.0473 40Z" fill="#858585"/>
<path d="M40.0264 18.96C39.8502 18.64 39.4976 18.24 38.7926 18.24H22.5762V34.56L39.762 20.24C40.2027 19.84 40.2027 19.36 40.0264 18.96Z" fill="#94D000"/>
<path d="M55.9783 26.32C55.4495 26.32 54.9207 26 54.5681 25.52L50.2496 17.12L48.487 18.88V25.12C48.487 25.76 47.8701 26.32 47.0769 26.32C46.2837 26.32 45.5786 25.76 45.5786 25.12V9.12C45.5786 8.48 46.2837 7.92 47.0769 7.92C47.8701 7.92 48.487 8.4 48.487 9.12V15.36C50.6022 13.04 52.7174 10.64 54.7444 8.4C55.0088 8.16 55.4495 8 55.8901 8C56.9477 8 57.6528 9.12 57.0359 9.92L52.2767 15.12L57.2121 24.64C57.5647 25.36 57.0359 26.32 55.9783 26.32Z" fill="#00A89B"/>
<path d="M61.1779 26.24C60.3847 26.24 59.6797 25.76 59.6797 25.04V9.28C59.6797 8.64 60.3847 8.16 61.1779 8.16H65.232C68.493 8.16 71.1369 10.48 71.1369 13.36V21.04C71.1369 23.92 68.493 26.24 65.232 26.24H61.1779ZM62.5881 23.84H65.1439C66.8184 23.84 68.1404 22.56 68.1404 21.04V13.36C68.1404 11.76 66.8184 10.56 65.1439 10.56H62.5881V23.84Z" fill="#00A89B"/>
<path d="M86.7366 24.88C86.9129 25.6 86.296 26.4 85.3265 26.4C84.7096 26.4 84.1808 26.08 84.0045 25.6L82.8588 22.24H77.2183C76.8658 23.44 76.5132 24.48 76.0726 25.6C75.8963 26.08 75.2794 26.4 74.6625 26.4C73.7811 26.4 72.9879 25.68 73.2523 24.88L78.5403 8.88C78.7166 8.4 79.3335 8.08 79.9504 8.08C80.5673 8.08 81.0961 8.4 81.3605 8.88L86.7366 24.88ZM81.9775 19.76L79.9504 12.8L77.8352 19.76H81.9775Z" fill="#00A89B"/>
<path d="M98.282 25.68L91.8483 14L92.1127 25.2C92.1127 25.84 91.4958 26.4 90.7026 26.4C89.9094 26.4 89.2925 25.84 89.2925 25.2V9.2C89.2925 8.56 89.9975 8 90.7026 8C91.2314 8 91.7602 8.32 92.0246 8.64L98.4583 20.32L98.1939 9.2C98.1939 8.56 98.8108 8 99.604 8C100.397 8 101.014 8.48 101.014 9.2V25.2C101.014 25.76 100.573 26.24 99.8684 26.4H99.9565C99.7803 26.48 99.6921 26.48 99.604 26.48C99.0752 26.32 98.5464 26.08 98.282 25.68Z" fill="#00A89B"/>
<path d="M53.9515 39.36V31.04L50.9549 36.48C50.8668 36.72 50.6024 36.8 50.338 36.8C50.0736 36.8 49.8974 36.72 49.7211 36.48L46.7246 31.04V39.36C46.7246 39.68 46.4602 39.92 46.1076 39.92C45.7551 39.92 45.4907 39.68 45.4907 39.36V28.56C45.4907 28.24 45.7551 28 46.1076 28C46.372 28 46.5483 28.16 46.7246 28.32L50.338 34.96L53.9515 28.32C54.0396 28.16 54.304 28 54.5684 28C54.9209 28 55.1853 28.32 55.1853 28.56V39.36C55.1853 39.68 54.9209 39.92 54.5684 39.92C54.2159 39.92 53.9515 39.68 53.9515 39.36Z" fill="#858585"/>
<path d="M58.0054 36.64V31.28C58.0054 29.44 59.5918 28 61.6188 28C63.6459 28 65.2322 29.52 65.2322 31.28V36.64C65.2322 38.48 63.6459 39.92 61.6188 39.92C59.6799 39.92 58.0054 38.48 58.0054 36.64ZM59.3274 31.28V36.64C59.3274 37.76 60.3849 38.72 61.6188 38.72C62.8527 38.72 63.9103 37.76 63.9103 36.64V31.28C63.9103 30.16 62.8527 29.2 61.6188 29.2C60.3849 29.12 59.3274 30.08 59.3274 31.28Z" fill="#858585"/>
<path d="M75.4556 36.4C75.4556 38.32 73.7811 39.84 71.6659 39.84H68.7576C68.405 39.84 68.1406 39.6 68.1406 39.28V28.64C68.1406 28.32 68.405 28.08 68.7576 28.08H71.6659C73.4286 28.08 75.015 29.44 75.015 31.12C75.015 32.08 74.4862 32.96 73.693 33.52C74.7506 34.08 75.4556 35.2 75.4556 36.4ZM69.4626 29.28V32.96H71.6659C72.8117 32.96 73.693 32.08 73.693 31.12C73.693 30.16 72.8117 29.28 71.6659 29.28H69.4626ZM74.1336 36.4C74.1336 35.12 72.9879 34.16 71.6659 34.16H69.4626V38.72H71.6659C73.0761 38.64 74.1336 37.68 74.1336 36.4Z" fill="#858585"/>
<path d="M83.3876 39.28C83.3876 39.6 83.1232 39.84 82.7706 39.84H78.1877C77.8352 39.84 77.5708 39.6 77.5708 39.28C77.5708 38.96 77.8352 38.72 78.1877 38.72H79.8622V29.28H78.1877C77.8352 29.28 77.5708 29.04 77.5708 28.72C77.5708 28.4 77.8352 28.16 78.1877 28.16H82.7706C83.1232 28.16 83.3876 28.4 83.3876 28.72C83.3876 29.04 83.1232 29.28 82.7706 29.28H81.1842V38.72H82.7706C83.1232 38.64 83.3876 38.96 83.3876 39.28Z" fill="#858585"/>
<path d="M92.5536 39.2C92.5536 39.52 92.2892 39.76 91.9366 39.76H86.6487C86.2961 39.76 86.0317 39.52 86.0317 39.2V28.56C86.0317 28.24 86.2961 28 86.6487 28C87.0012 28 87.2656 28.24 87.2656 28.56V38.56H91.9366C92.2892 38.56 92.5536 38.8 92.5536 39.2Z" fill="#858585"/>
<path d="M101.191 39.28C101.191 39.6 100.926 39.84 100.574 39.84H95.2859C94.9333 39.84 94.6689 39.6 94.6689 39.28V28.64C94.6689 28.32 94.9333 28.08 95.2859 28.08H100.486C100.838 28.08 101.103 28.32 101.103 28.64C101.103 28.96 100.838 29.2 100.486 29.2H95.9028V32.88H99.9569C100.309 32.88 100.574 33.12 100.574 33.44C100.574 33.76 100.309 34 99.9569 34H95.9028V38.56H100.486C100.926 38.64 101.191 38.96 101.191 39.28Z" fill="#858585"/>
</g>
<defs>
<clipPath id="clip0_418_853">
<rect width="101" height="40" fill="white" transform="translate(0.19043)"/>
</clipPath>
</defs>
</svg>
