<svg width="36" height="36" viewBox="0 0 36 36" fill="none" xmlns="http://www.w3.org/2000/svg">
<path fill-rule="evenodd" clip-rule="evenodd" d="M15.8293 12H29C29.5523 12 30 12.4477 30 13C30 13.5523 29.5523 14 29 14H15.8293C15.4175 15.1652 14.3062 16 13 16C11.6938 16 10.5825 15.1652 10.1707 14H7C6.44772 14 6 13.5523 6 13C6 12.4477 6.44772 12 7 12H10.1707C10.5825 10.8348 11.6938 10 13 10C14.3062 10 15.4175 10.8348 15.8293 12Z" fill="#4C526A"/>
<path fill-rule="evenodd" clip-rule="evenodd" d="M20.1707 22H7C6.44772 22 6 22.4477 6 23C6 23.5523 6.44772 24 7 24H20.1707C20.5825 25.1652 21.6938 26 23 26C24.3062 26 25.4175 25.1652 25.8293 24H29C29.5523 24 30 23.5523 30 23C30 22.4477 29.5523 22 29 22H25.8293C25.4175 20.8348 24.3062 20 23 20C21.6938 20 20.5825 20.8348 20.1707 22Z" fill="#4C526A"/>
</svg>
