<svg width="41" height="41" viewBox="0 0 41 41" fill="none" xmlns="http://www.w3.org/2000/svg">
<path d="M32.8615 11.6317C34.5782 13.4551 35.4999 15.5001 35.4999 18.8151C35.4999 24.6484 31.4049 29.8768 25.4499 32.4618L23.9615 30.1651C29.5199 27.1584 30.6065 23.2568 31.0399 20.7968C30.1449 21.2601 28.9732 21.4218 27.8249 21.3151C24.8182 21.0367 22.4482 18.5684 22.4482 15.5001C22.4482 13.953 23.0628 12.4693 24.1567 11.3753C25.2507 10.2813 26.7344 9.66675 28.2815 9.66675C30.0699 9.66675 31.7799 10.4834 32.8615 11.6317ZM16.1949 11.6317C17.9115 13.4551 18.8332 15.5001 18.8332 18.8151C18.8332 24.6484 14.7382 29.8768 8.7832 32.4618L7.29487 30.1651C12.8532 27.1584 13.9399 23.2568 14.3732 20.7968C13.4782 21.2601 12.3065 21.4218 11.1582 21.3151C8.15154 21.0367 5.7832 18.5684 5.7832 15.5001C5.7832 13.953 6.39778 12.4693 7.49175 11.3753C8.58571 10.2813 10.0694 9.66675 11.6165 9.66675C13.4049 9.66675 15.1149 10.4834 16.1965 11.6317H16.1949Z" fill="#F59E00"/>
</svg>
